<svg width="22" height="22" viewBox="0 0 22 22" fill="none" xmlns="http://www.w3.org/2000/svg">
<g clip-path="url(#clip0_527_23187)">
<path d="M10.0833 11.4583H7.5625C7.50172 11.4583 7.44343 11.4825 7.40045 11.5255C7.35748 11.5684 7.33333 11.6267 7.33333 11.6875V15.125C7.33333 15.2101 7.30963 15.2936 7.26488 15.366C7.22013 15.4384 7.1561 15.4969 7.07997 15.5349C7.00384 15.573 6.91861 15.5891 6.83384 15.5815C6.74906 15.5738 6.66809 15.5427 6.6 15.4917L5.68333 14.7675C5.64263 14.7403 5.59478 14.7258 5.54583 14.7258C5.49688 14.7258 5.44903 14.7403 5.40833 14.7675L4.49167 15.4917C4.42357 15.5427 4.3426 15.5738 4.25783 15.5815C4.17305 15.5891 4.08783 15.573 4.01169 15.5349C3.93556 15.4969 3.87153 15.4384 3.82678 15.366C3.78204 15.2936 3.75833 15.2101 3.75833 15.125V11.6875C3.75833 11.6267 3.73419 11.5684 3.69121 11.5255C3.64823 11.4825 3.58995 11.4583 3.52917 11.4583H0.916667C0.673551 11.4583 0.440394 11.5549 0.268485 11.7268C0.0965771 11.8987 0 12.1319 0 12.375L0 21.0833C0 21.3264 0.0965771 21.5596 0.268485 21.7315C0.440394 21.9034 0.673551 22 0.916667 22H10.0833C10.3264 22 10.5596 21.9034 10.7315 21.7315C10.9034 21.5596 11 21.3264 11 21.0833V12.375C11 12.1319 10.9034 11.8987 10.7315 11.7268C10.5596 11.5549 10.3264 11.4583 10.0833 11.4583ZM19.525 7.66333C19.4883 7.64329 19.4573 7.61428 19.4349 7.57902C19.4124 7.54376 19.3993 7.50338 19.3967 7.46167C19.3975 7.42064 19.4089 7.38051 19.4298 7.34518C19.4506 7.30985 19.4803 7.28051 19.5158 7.26C20.1018 6.91531 20.5876 6.42364 20.9252 5.83361C21.2628 5.24358 21.4405 4.57563 21.4408 3.89583C21.4175 2.86992 20.9996 1.8925 20.274 1.16688C19.5483 0.441266 18.5709 0.0233251 17.545 0C16.8218 0.00632108 16.1143 0.211496 15.4999 0.593062C14.8855 0.974629 14.3879 1.51788 14.0617 2.16333C14.0424 2.20261 14.0124 2.23557 13.975 2.25831C13.9376 2.28105 13.8946 2.29262 13.8508 2.29167H12.375C12.1319 2.29167 11.8987 2.38824 11.7268 2.56015C11.5549 2.73206 11.4583 2.96522 11.4583 3.20833C11.4583 3.45145 11.5549 3.68461 11.7268 3.85651C11.8987 4.02842 12.1319 4.125 12.375 4.125H13.4567C13.5114 4.1268 13.5636 4.14812 13.604 4.18511C13.6443 4.2221 13.6701 4.27232 13.6767 4.32667C13.7465 4.91088 13.9477 5.47169 14.2652 5.96702C14.5827 6.46235 15.0083 6.87933 15.51 7.18667C15.5452 7.2091 15.5739 7.24038 15.5932 7.27738C15.6125 7.31438 15.6217 7.3558 15.62 7.3975C15.6168 7.43906 15.6022 7.47894 15.578 7.51286C15.5538 7.54678 15.5208 7.57345 15.4825 7.59C14.6929 7.95755 14.0243 8.54247 13.5552 9.27627C13.086 10.0101 12.8356 10.8624 12.8333 11.7333V14.4833C12.8357 14.6042 12.8847 14.7194 12.9702 14.8048C13.0556 14.8903 13.1708 14.9393 13.2917 14.9417H14.6667C14.7228 14.9437 14.7762 14.9664 14.8168 15.0052C14.8573 15.0441 14.8822 15.0965 14.8867 15.1525L15.5833 21.4592C15.5967 21.5718 15.6505 21.6758 15.7348 21.7517C15.8192 21.8276 15.9282 21.8702 16.0417 21.8717H18.7917C18.9057 21.8722 19.0158 21.8303 19.1006 21.754C19.1853 21.6777 19.2386 21.5726 19.25 21.4592L19.8825 15.1708C19.8871 15.1133 19.9133 15.0596 19.9558 15.0205C19.9983 14.9814 20.0539 14.9598 20.1117 14.96H21.5417C21.6625 14.9577 21.7777 14.9086 21.8632 14.8232C21.9486 14.7377 21.9977 14.6225 22 14.5017V11.7517C22.0034 10.9085 21.7742 10.0807 21.3375 9.35938C20.9009 8.63807 20.2737 8.05119 19.525 7.66333ZM19.4517 4.125C19.4817 4.11724 19.5133 4.11724 19.5433 4.125C19.5501 4.14094 19.5537 4.15809 19.5537 4.17542C19.5537 4.19275 19.5501 4.2099 19.5433 4.22583C19.4458 4.66636 19.2059 5.06249 18.8607 5.35301C18.5155 5.64354 18.0842 5.81227 17.6335 5.83314C17.1828 5.854 16.7378 5.72584 16.3672 5.46845C15.9966 5.21107 15.7211 4.83879 15.5833 4.40917C15.5681 4.37938 15.5601 4.34639 15.5601 4.31292C15.5601 4.27944 15.5681 4.24645 15.5833 4.21667C15.6033 4.18891 15.6294 4.16618 15.6596 4.15027C15.6898 4.13436 15.7233 4.12571 15.7575 4.125H19.4517Z" fill="#052F59"/>
</g>
<defs>
<clipPath id="clip0_527_23187">
<rect width="22" height="22" fill="white"/>
</clipPath>
</defs>
</svg>
