<svg width="30" height="30" viewBox="0 0 30 30" fill="none" xmlns="http://www.w3.org/2000/svg">
<path fill-rule="evenodd" clip-rule="evenodd" d="M4.39698 21.2498L13.2195 6.52103C13.4053 6.21499 13.6667 5.96197 13.9787 5.78639C14.2907 5.6108 14.6427 5.51855 15.0007 5.51855C15.3587 5.51855 15.7107 5.6108 16.0227 5.78639C16.3347 5.96197 16.5962 6.21499 16.782 6.52103L25.6045 21.2498C25.7863 21.5648 25.8824 21.922 25.8834 22.2857C25.8843 22.6494 25.79 23.007 25.6099 23.323C25.4298 23.639 25.1701 23.9024 24.8567 24.0869C24.5432 24.2714 24.1869 24.3707 23.8232 24.3748H6.17823C5.81438 24.371 5.45786 24.272 5.14419 24.0876C4.83052 23.9032 4.57065 23.6398 4.39046 23.3237C4.21027 23.0075 4.11605 22.6497 4.1172 22.2858C4.11834 21.922 4.2148 21.5648 4.39698 21.2498ZM15.0007 11.2498C15.3322 11.2498 15.6502 11.3815 15.8846 11.6159C16.119 11.8503 16.2507 12.1683 16.2507 12.4998V16.2498C16.2507 16.5813 16.119 16.8992 15.8846 17.1337C15.6502 17.3681 15.3322 17.4998 15.0007 17.4998C14.6692 17.4998 14.3513 17.3681 14.1168 17.1337C13.8824 16.8992 13.7507 16.5813 13.7507 16.2498V12.4998C13.7507 12.1683 13.8824 11.8503 14.1168 11.6159C14.3513 11.3815 14.6692 11.2498 15.0007 11.2498ZM13.7507 19.9998C13.7507 19.6683 13.8824 19.3503 14.1168 19.1159C14.3513 18.8815 14.6692 18.7498 15.0007 18.7498H15.0107C15.3422 18.7498 15.6602 18.8815 15.8946 19.1159C16.129 19.3503 16.2607 19.6683 16.2607 19.9998C16.2607 20.3313 16.129 20.6492 15.8946 20.8837C15.6602 21.1181 15.3422 21.2498 15.0107 21.2498H15.0007C14.6692 21.2498 14.3513 21.1181 14.1168 20.8837C13.8824 20.6492 13.7507 20.3313 13.7507 19.9998Z" fill="#FF0000"/>
</svg>
