<svg width="24" height="24" viewBox="0 0 24 24" fill="none" xmlns="http://www.w3.org/2000/svg">
<g clip-path="url(#clip0_1_38701)">
<path d="M16.45 20.15L12.825 23.775C12.7417 23.8583 12.6583 23.9167 12.575 23.95C12.4917 23.9833 12.4 24 12.3 24C12.2 24 12.1083 23.9833 12.025 23.95C11.9417 23.9167 11.8583 23.8583 11.775 23.775L8.15 20.15C8.1 20.1 8.06267 20.0457 8.038 19.987C8.01333 19.9283 8.00067 19.866 8 19.8C8 19.6667 8.046 19.55 8.138 19.45C8.23 19.35 8.35067 19.3 8.5 19.3L16.1 19.3C16.25 19.3 16.371 19.35 16.463 19.45C16.555 19.55 16.6007 19.6667 16.6 19.8C16.6 19.8333 16.55 19.95 16.45 20.15Z" fill="black"/>
<path d="M8.14961 4.14981L11.7746 0.524806C11.8579 0.441472 11.9413 0.38314 12.0246 0.349807C12.1079 0.316473 12.1996 0.299806 12.2996 0.299806C12.3996 0.299806 12.4913 0.316473 12.5746 0.349806C12.6579 0.38314 12.7413 0.441472 12.8246 0.524806L16.4496 4.14981C16.4996 4.19981 16.5369 4.25414 16.5616 4.31281C16.5863 4.37147 16.5989 4.43381 16.5996 4.49981C16.5996 4.63314 16.5536 4.74981 16.4616 4.84981C16.3696 4.94981 16.2489 4.99981 16.0996 4.99981L8.49961 4.99981C8.34961 4.99981 8.22861 4.94981 8.13661 4.84981C8.04461 4.74981 7.99894 4.63314 7.99961 4.49981C7.99961 4.46647 8.04961 4.34981 8.14961 4.14981Z" fill="black"/>
</g>
<defs>
<clipPath id="clip0_1_38701">
<rect width="24" height="24" fill="white" transform="translate(1.04907e-06 24) rotate(-90)"/>
</clipPath>
</defs>
</svg>
