<svg width="30" height="30" viewBox="0 0 30 30" fill="none" xmlns="http://www.w3.org/2000/svg">
<path d="M14.1087 5.89669L14.4925 5.73419C18.055 4.14919 21.5925 4.18794 23.9062 4.48919L24.4188 4.56169L24.8837 4.64044L25.3 4.72169L25.6625 4.80044C26.7425 5.04794 27.4175 5.97169 27.4925 6.96419L27.5 7.15169V21.6329C27.5 22.9167 26.28 23.7592 25.1338 23.4954L24.7837 23.4179L24.3775 23.3404L23.9212 23.2654C23.6653 23.2268 23.4086 23.1939 23.1512 23.1667L22.585 23.1167C20.7313 22.9867 18.3175 23.1179 15.8913 24.1042L15.5075 24.2667C12.22 25.7292 8.9525 25.8092 6.64875 25.5754L6.09375 25.5129L5.58125 25.4379L5.11625 25.3592L4.90125 25.3192L4.33875 25.2004C3.2575 24.9529 2.5825 24.0292 2.5075 23.0367L2.5 22.8492V8.36794C2.5 7.08419 3.72 6.24044 4.86625 6.50544L5.21625 6.58294L5.6225 6.66044L6.07875 6.73544C7.99875 7.02294 11.0437 7.14294 14.1087 5.89669ZM15 10.0004C13.6739 10.0004 12.4021 10.5272 11.4645 11.4649C10.5268 12.4026 10 13.6744 10 15.0004C10 16.3265 10.5268 17.5983 11.4645 18.536C12.4021 19.4737 13.6739 20.0004 15 20.0004C16.3261 20.0004 17.5979 19.4737 18.5355 18.536C19.4732 17.5983 20 16.3265 20 15.0004C20 13.6744 19.4732 12.4026 18.5355 11.4649C17.5979 10.5272 16.3261 10.0004 15 10.0004ZM15 12.5004C15.663 12.5004 16.2989 12.7638 16.7678 13.2327C17.2366 13.7015 17.5 14.3374 17.5 15.0004C17.5 15.6635 17.2366 16.2994 16.7678 16.7682C16.2989 17.237 15.663 17.5004 15 17.5004C14.337 17.5004 13.7011 17.237 13.2322 16.7682C12.7634 16.2994 12.5 15.6635 12.5 15.0004C12.5 14.3374 12.7634 13.7015 13.2322 13.2327C13.7011 12.7638 14.337 12.5004 15 12.5004Z" fill="#EBA352"/>
</svg>
