<svg width="30" height="30" viewBox="0 0 30 30" fill="none" xmlns="http://www.w3.org/2000/svg">
<path d="M14.5 15C16.546 15 18.5081 14.2098 19.9548 12.8033C21.4015 11.3968 22.2143 9.48912 22.2143 7.5C22.2143 5.51088 21.4015 3.60322 19.9548 2.1967C18.5081 0.790176 16.546 0 14.5 0C12.454 0 10.4919 0.790176 9.04518 2.1967C7.59847 3.60322 6.78571 5.51088 6.78571 7.5C6.78571 9.48912 7.59847 11.3968 9.04518 12.8033C10.4919 14.2098 12.454 15 14.5 15ZM8.71429 18.2344C4.25446 19.5059 1 23.5137 1 28.2598C1 29.2207 1.80156 30 2.78996 30H26.21C27.1984 30 28 29.2207 28 28.2598C28 23.5137 24.7455 19.5059 20.2857 18.2344V21.2109C21.9491 21.627 23.1786 23.0977 23.1786 24.8438V27.1875C23.1786 27.7031 22.7446 28.125 22.2143 28.125H21.25C20.7196 28.125 20.2857 27.7031 20.2857 27.1875C20.2857 26.6719 20.7196 26.25 21.25 26.25V24.8438C21.25 23.8066 20.3882 22.9688 19.3214 22.9688C18.2547 22.9688 17.3929 23.8066 17.3929 24.8438V26.25C17.9232 26.25 18.3571 26.6719 18.3571 27.1875C18.3571 27.7031 17.9232 28.125 17.3929 28.125H16.4286C15.8982 28.125 15.4643 27.7031 15.4643 27.1875V24.8438C15.4643 23.0977 16.6937 21.627 18.3571 21.2109V17.8652C17.9955 17.8301 17.6279 17.8125 17.2542 17.8125H11.7458C11.3721 17.8125 11.0045 17.8301 10.6429 17.8652V21.6973C12.035 22.1016 13.0536 23.3555 13.0536 24.8438C13.0536 26.6543 11.5408 28.125 9.67857 28.125C7.81629 28.125 6.30357 26.6543 6.30357 24.8438C6.30357 23.3555 7.3221 22.1016 8.71429 21.6973V18.2344ZM9.67857 26.25C10.0622 26.25 10.4301 26.1018 10.7014 25.8381C10.9726 25.5744 11.125 25.2167 11.125 24.8438C11.125 24.4708 10.9726 24.1131 10.7014 23.8494C10.4301 23.5857 10.0622 23.4375 9.67857 23.4375C9.29495 23.4375 8.92705 23.5857 8.65579 23.8494C8.38453 24.1131 8.23214 24.4708 8.23214 24.8438C8.23214 25.2167 8.38453 25.5744 8.65579 25.8381C8.92705 26.1018 9.29495 26.25 9.67857 26.25Z" fill="url(#paint0_linear_2056_21090)"/>
<defs>
<linearGradient id="paint0_linear_2056_21090" x1="1" y1="15" x2="28.3061" y2="14.8113" gradientUnits="userSpaceOnUse">
<stop offset="0.486809" stop-color="#00B4B5"/>
<stop offset="0.740385" stop-color="#037287"/>
<stop offset="1" stop-color="#052F59"/>
</linearGradient>
</defs>
</svg>
