<svg width="61" height="61" viewBox="0 0 61 61" fill="none" xmlns="http://www.w3.org/2000/svg">
<path fill-rule="evenodd" clip-rule="evenodd" d="M26.8938 5.00391H31.8972C36.6155 5.00391 38.9721 5.00391 40.4381 6.46992C41.9041 7.93593 41.9041 10.2926 41.9041 15.0108V53.1621H54.4127C54.9103 53.1621 55.3876 53.3598 55.7395 53.7116C56.0913 54.0635 56.289 54.5408 56.289 55.0384C56.289 55.536 56.0913 56.0132 55.7395 56.3651C55.3876 56.717 54.9103 56.9147 54.4127 56.9147H4.37825C3.88062 56.9147 3.40338 56.717 3.05151 56.3651C2.69963 56.0132 2.50195 55.536 2.50195 55.0384C2.50195 54.5408 2.69963 54.0635 3.05151 53.7116C3.40338 53.3598 3.88062 53.1621 4.37825 53.1621H16.8869V15.0108C16.8869 10.2926 16.8869 7.93593 18.3529 6.46992C19.8189 5.00391 22.1755 5.00391 26.8938 5.00391ZM29.3955 10.6328C29.8931 10.6328 30.3703 10.8305 30.7222 11.1823C31.0741 11.5342 31.2718 12.0115 31.2718 12.5091V15.6362H34.3989C34.8966 15.6362 35.3738 15.8339 35.7257 16.1858C36.0775 16.5377 36.2752 17.0149 36.2752 17.5125C36.2752 18.0101 36.0775 18.4874 35.7257 18.8393C35.3738 19.1911 34.8966 19.3888 34.3989 19.3888H31.2718V22.516C31.2718 23.0136 31.0741 23.4908 30.7222 23.8427C30.3703 24.1946 29.8931 24.3923 29.3955 24.3923C28.8979 24.3923 28.4206 24.1946 28.0687 23.8427C27.7169 23.4908 27.5192 23.0136 27.5192 22.516V19.3888H24.392C23.8944 19.3888 23.4172 19.1911 23.0653 18.8393C22.7134 18.4874 22.5157 18.0101 22.5157 17.5125C22.5157 17.0149 22.7134 16.5377 23.0653 16.1858C23.4172 15.8339 23.8944 15.6362 24.392 15.6362H27.5192V12.5091C27.5192 12.0115 27.7169 11.5342 28.0687 11.1823C28.4206 10.8305 28.8979 10.6328 29.3955 10.6328ZM22.5157 30.0211C22.5157 29.5235 22.7134 29.0463 23.0653 28.6944C23.4172 28.3425 23.8944 28.1449 24.392 28.1449H34.3989C34.8966 28.1449 35.3738 28.3425 35.7257 28.6944C36.0775 29.0463 36.2752 29.5235 36.2752 30.0211C36.2752 30.5188 36.0775 30.996 35.7257 31.3479C35.3738 31.6998 34.8966 31.8974 34.3989 31.8974H24.392C23.8944 31.8974 23.4172 31.6998 23.0653 31.3479C22.7134 30.996 22.5157 30.5188 22.5157 30.0211ZM22.5157 37.5263C22.5157 37.0287 22.7134 36.5515 23.0653 36.1996C23.4172 35.8477 23.8944 35.65 24.392 35.65H34.3989C34.8966 35.65 35.3738 35.8477 35.7257 36.1996C36.0775 36.5515 36.2752 37.0287 36.2752 37.5263C36.2752 38.0239 36.0775 38.5012 35.7257 38.8531C35.3738 39.2049 34.8966 39.4026 34.3989 39.4026H24.392C23.8944 39.4026 23.4172 39.2049 23.0653 38.8531C22.7134 38.5012 22.5157 38.0239 22.5157 37.5263ZM29.3955 45.6569C29.8931 45.6569 30.3703 45.8546 30.7222 46.2065C31.0741 46.5583 31.2718 47.0356 31.2718 47.5332V53.1621H27.5192V47.5332C27.5192 47.0356 27.7169 46.5583 28.0687 46.2065C28.4206 45.8546 28.8979 45.6569 29.3955 45.6569Z" fill="#00B4B5"/>
<path opacity="0.5" d="M52.3188 14.7318C53.1619 15.9927 53.1619 17.7489 53.1619 21.2638V53.1608H54.4127C54.9103 53.1608 55.3876 53.3585 55.7395 53.7104C56.0913 54.0622 56.289 54.5395 56.289 55.0371C56.289 55.5347 56.0913 56.012 55.7395 56.3639C55.3876 56.7157 54.9103 56.9134 54.4127 56.9134H4.37825C3.88062 56.9134 3.40338 56.7157 3.05151 56.3639C2.69963 56.012 2.50195 55.5347 2.50195 55.0371C2.50195 54.5395 2.69963 54.0622 3.05151 53.7104C3.40338 53.3585 3.88062 53.1608 4.37825 53.1608H5.62911V21.2638C5.62911 17.7489 5.62911 15.9927 6.47219 14.7318C6.83733 14.1853 7.30658 13.716 7.85314 13.3509C8.9564 12.6129 14.2 12.5203 16.9044 12.5103C16.896 13.2391 16.8927 13.998 16.8944 14.7869V18.1367H10.6326C10.1349 18.1367 9.65769 18.3344 9.30582 18.6862C8.95394 19.0381 8.75626 19.5154 8.75626 20.013C8.75626 20.5106 8.95394 20.9878 9.30582 21.3397C9.65769 21.6916 10.1349 21.8893 10.6326 21.8893H16.8944V25.6419H10.6326C10.1349 25.6419 9.65769 25.8395 9.30582 26.1914C8.95394 26.5433 8.75626 27.0205 8.75626 27.5182C8.75626 28.0158 8.95394 28.493 9.30582 28.8449C9.65769 29.1968 10.1349 29.3944 10.6326 29.3944H16.8944V33.147H10.6326C10.1349 33.147 9.65769 33.3447 9.30582 33.6966C8.95394 34.0485 8.75626 34.5257 8.75626 35.0233C8.75626 35.5209 8.95394 35.9982 9.30582 36.3501C9.65769 36.7019 10.1349 36.8996 10.6326 36.8996H16.8944V53.1608H41.9116V36.8996H48.1584C48.656 36.8996 49.1333 36.7019 49.4851 36.3501C49.837 35.9982 50.0347 35.5209 50.0347 35.0233C50.0347 34.5257 49.837 34.0485 49.4851 33.6966C49.1333 33.3447 48.656 33.147 48.1584 33.147H41.9116V29.3944H48.1584C48.656 29.3944 49.1333 29.1968 49.4851 28.8449C49.837 28.493 50.0347 28.0158 50.0347 27.5182C50.0347 27.0205 49.837 26.5433 49.4851 26.1914C49.1333 25.8395 48.656 25.6419 48.1584 25.6419H41.9116V21.8893H48.1584C48.656 21.8893 49.1333 21.6916 49.4851 21.3397C49.837 20.9878 50.0347 20.5106 50.0347 20.013C50.0347 19.5154 49.837 19.0381 49.4851 18.6862C49.1333 18.3344 48.656 18.1367 48.1584 18.1367H41.9116V14.7844C41.9133 13.9988 41.9099 13.24 41.9016 12.5078C44.606 12.5203 49.8321 12.6129 50.9378 13.3509C51.4844 13.716 51.9536 14.1853 52.3188 14.7318Z" fill="#00B4B5"/>
</svg>
