<svg width="58" height="58" viewBox="0 0 58 58" fill="none" xmlns="http://www.w3.org/2000/svg">
<path d="M44.4062 53.3473L47.1854 50.5681L36.4312 39.8139L33.6521 42.5931C32.1618 44.0834 31.4167 45.8757 31.4167 47.9702C31.4167 50.0646 32.1618 51.857 33.6521 53.3473C35.1424 54.8375 36.9347 55.5827 39.0292 55.5827C41.1236 55.5827 42.916 54.8375 44.4062 53.3473ZM50.5687 47.1848L53.3479 44.4056C54.8382 42.9153 55.5833 41.123 55.5833 39.0285C55.5833 36.9341 54.8382 35.1417 53.3479 33.6514C51.8576 32.1612 50.0653 31.416 47.9708 31.416C45.8764 31.416 44.084 32.1612 42.5937 33.6514L39.8146 36.4306L50.5687 47.1848ZM16.9167 21.7493H41.0833V16.916H16.9167V21.7493ZM29 10.2702C29.5236 10.2702 29.957 10.0986 30.3002 9.75543C30.6433 9.41227 30.8141 8.97968 30.8125 8.45768C30.8109 7.93568 30.6393 7.5031 30.2977 7.15993C29.9562 6.81677 29.5236 6.64518 29 6.64518C28.4764 6.64518 28.0438 6.81677 27.7022 7.15993C27.3607 7.5031 27.1891 7.93568 27.1875 8.45768C27.1859 8.97968 27.3575 9.41307 27.7022 9.75785C28.047 10.1026 28.4796 10.2734 29 10.2702ZM26.8854 50.7494H12.0833C10.7542 50.7494 9.61672 50.2765 8.671 49.3308C7.72528 48.385 7.25161 47.2468 7.25 45.916V12.0827C7.25 10.7535 7.72367 9.61607 8.671 8.67035C9.61833 7.72463 10.7558 7.25096 12.0833 7.24935H22.2333C22.7569 5.79935 23.6334 4.63129 24.8627 3.74518C26.0919 2.85907 27.4711 2.41602 29 2.41602C30.5289 2.41602 31.9089 2.85907 33.1397 3.74518C34.3706 4.63129 35.2463 5.79935 35.7667 7.24935H45.9167C47.2458 7.24935 48.3841 7.72302 49.3314 8.67035C50.2787 9.61768 50.7516 10.7551 50.75 12.0827V26.8848C49.0583 26.482 47.3771 26.4514 45.7064 26.7929C44.0357 27.1345 42.4947 27.7701 41.0833 28.6997V26.5827H16.9167V31.416H38.0021L33.1687 36.2494H16.9167V41.0827H28.6979C27.7715 42.4924 27.1367 44.0334 26.7936 45.7058C26.4504 47.3781 26.4818 49.0593 26.8878 50.7494" fill="#999999"/>
</svg>
