<svg width="90" height="90" viewBox="0 0 90 90" fill="none" xmlns="http://www.w3.org/2000/svg">
<path fill-rule="evenodd" clip-rule="evenodd" d="M72.5738 24.375H61.8375V33.75H24.015V56.25H61.8375V65.625H72.5775C69.164 70.8144 64.5137 75.0737 59.0452 78.0194C53.5766 80.9651 47.4615 82.5048 41.25 82.5C20.5388 82.5 3.75 65.7113 3.75 45C3.75 24.2888 20.5388 7.50001 41.25 7.50001C47.4608 7.49582 53.5752 9.03585 59.0431 11.9815C64.5109 14.9272 69.1606 19.1861 72.5738 24.375Z" fill="#EF0000"/>
<path fill-rule="evenodd" clip-rule="evenodd" d="M71.2129 30L86.2129 45L71.2129 60H67.4629V50.625H29.9629V39.375H67.4629V30H71.2129Z" fill="#EF0000"/>
</svg>
