<svg width="16" height="24" viewBox="0 0 16 24" fill="none" xmlns="http://www.w3.org/2000/svg">
<g clip-path="url(#clip0_2432_30701)">
<path d="M4.41162 17.7793C5.07496 18.6639 5.67873 19.5957 6.21856 20.5679C6.67943 21.4822 6.87156 22.1023 7.20837 23.204C7.41493 23.8127 7.60162 23.9943 8.003 23.9943C8.44037 23.9943 8.63881 23.6853 8.79212 23.2073C9.1105 22.1669 9.36031 21.3728 9.75443 20.6226C10.5278 19.1741 11.4888 17.8869 12.4331 16.6498C12.6887 16.2997 14.3414 14.2599 15.0855 12.6505C15.0855 12.6505 16 10.8826 16 8.41343C16 6.10381 15.0981 4.50195 15.0981 4.50195L12.5016 5.22954L10.9247 9.57511L10.5346 10.1743L10.4566 10.2829L10.3528 10.4188L10.1707 10.6358L9.91043 10.9081L8.50625 12.105L4.99562 14.2259L4.41162 17.7793Z" fill="#34A853"/>
<path d="M0.788208 12.3525C1.64502 14.4002 3.29727 16.2002 4.41515 17.7799L10.3527 10.4208C10.3527 10.4208 9.51621 11.5654 7.99883 11.5654C6.30865 11.5654 4.94321 10.1532 4.94321 8.37251C4.94321 7.15139 5.64533 6.3125 5.64533 6.3125L1.61477 7.44253L0.788208 12.3525Z" fill="#FBBC04"/>
<path d="M10.419 0.378906C12.391 1.04417 14.0789 2.44081 15.0998 4.5003L10.3545 10.4171C10.3545 10.4171 11.0566 9.56306 11.0566 8.34952C11.0566 6.52735 9.59021 5.16609 8.00602 5.16609C6.50796 5.16609 5.64758 6.30887 5.64758 6.30887V2.58135L10.419 0.378906Z" fill="#4285F4"/>
<path d="M1.87598 2.99281C3.05379 1.51834 5.12629 0 7.98354 0C9.36979 0 10.4142 0.380796 10.4142 0.380796L5.64316 6.31167H2.26285L1.87598 2.99281Z" fill="#1A73E8"/>
<path d="M0.78825 12.352C0.78825 12.352 0 10.7369 0 8.39703C0 6.18556 0.821625 4.25248 1.87594 2.99219L5.64581 6.31158L0.78825 12.352Z" fill="#EA4335"/>
</g>
<defs>
<clipPath id="clip0_2432_30701">
<rect width="16" height="24" fill="white"/>
</clipPath>
</defs>
</svg>
