<svg width="30" height="30" viewBox="0 0 30 30" fill="none" xmlns="http://www.w3.org/2000/svg">
<path d="M25 5V11.25L23.125 9.375L6.875 25.625L4.375 23.125L20.625 6.875L18.75 5H25ZM21.25 25C20.2554 25 19.3016 24.6049 18.5983 23.9017C17.8951 23.1984 17.5 22.2446 17.5 21.25V18.75C17.5 17.7554 17.8951 16.8016 18.5983 16.0983C19.3016 15.3951 20.2554 15 21.25 15C22.2446 15 23.1984 15.3951 23.9017 16.0983C24.6049 16.8016 25 17.7554 25 18.75V21.25C25 22.2446 24.6049 23.1984 23.9017 23.9017C23.1984 24.6049 22.2446 25 21.25 25ZM21.25 17.5C20.9185 17.5 20.6005 17.6317 20.3661 17.8661C20.1317 18.1005 20 18.4185 20 18.75V21.25C20 21.5815 20.1317 21.8995 20.3661 22.1339C20.6005 22.3683 20.9185 22.5 21.25 22.5C21.5815 22.5 21.8995 22.3683 22.1339 22.1339C22.3683 21.8995 22.5 21.5815 22.5 21.25V18.75C22.5 18.4185 22.3683 18.1005 22.1339 17.8661C21.8995 17.6317 21.5815 17.5 21.25 17.5ZM8.75 15C7.75544 15 6.80161 14.6049 6.09835 13.9017C5.39509 13.1984 5 12.2446 5 11.25V8.75C5 7.75544 5.39509 6.80161 6.09835 6.09835C6.80161 5.39509 7.75544 5 8.75 5C9.74456 5 10.6984 5.39509 11.4017 6.09835C12.1049 6.80161 12.5 7.75544 12.5 8.75V11.25C12.5 12.2446 12.1049 13.1984 11.4017 13.9017C10.6984 14.6049 9.74456 15 8.75 15ZM8.75 7.5C8.41848 7.5 8.10054 7.6317 7.86612 7.86612C7.6317 8.10054 7.5 8.41848 7.5 8.75V11.25C7.5 11.5815 7.6317 11.8995 7.86612 12.1339C8.10054 12.3683 8.41848 12.5 8.75 12.5C9.08152 12.5 9.39946 12.3683 9.63388 12.1339C9.8683 11.8995 10 11.5815 10 11.25V8.75C10 8.41848 9.8683 8.10054 9.63388 7.86612C9.39946 7.6317 9.08152 7.5 8.75 7.5Z" fill="#EBA352"/>
</svg>
