<svg width="23" height="30" viewBox="0 0 23 30" fill="none" xmlns="http://www.w3.org/2000/svg">
<g clip-path="url(#clip0_107_23345)">
<path d="M6.54377 10.1515C8.04057 8.68726 8.04057 6.31245 6.54377 4.84819C5.04697 3.38394 2.61939 3.38394 1.1226 4.84819C-0.374199 6.31245 -0.374199 8.68726 1.1226 10.1515C2.61999 11.6164 5.04697 11.6164 6.54377 10.1515ZM21.8771 19.8482C20.3803 18.3839 17.9527 18.3839 16.4559 19.8482C14.9591 21.3125 14.9591 23.6873 16.4559 25.1515C17.9527 26.6158 20.3803 26.6158 21.8771 25.1515C23.3745 23.6873 23.3745 21.313 21.8771 19.8482ZM21.7609 6.28784L20.4061 4.96245C19.6574 4.23003 18.4439 4.23003 17.6958 4.96245L1.23939 21.0611C0.490697 21.7935 0.490697 22.9806 1.23939 23.7125L2.59424 25.0378C3.34294 25.7703 4.55643 25.7703 5.30452 25.0378L21.7609 8.93921C22.5096 8.20737 22.5096 7.02026 21.7609 6.28784Z" fill="#EBA352"/>
</g>
<defs>
<clipPath id="clip0_107_23345">
<rect width="23" height="30" fill="white"/>
</clipPath>
</defs>
</svg>
