<svg width="20" height="20" viewBox="0 0 20 20" fill="none" xmlns="http://www.w3.org/2000/svg">
<path d="M6.16167 16.6872C5.77944 16.6733 5.41583 16.5741 5.07083 16.3897C4.72639 16.2058 4.40083 15.9363 4.09417 15.5813C3.59194 15.0108 3.20083 14.3091 2.92083 13.4763C2.64028 12.6436 2.5 11.7786 2.5 10.8813C2.5 9.83523 2.69472 8.85329 3.08417 7.93551C3.47361 7.01773 4.00861 6.21856 4.68917 5.53801C5.36972 4.85745 6.16611 4.31995 7.07833 3.92551C7.99056 3.53106 8.96444 3.33356 10 3.33301C11.0356 3.33245 12.0094 3.53079 12.9217 3.92801C13.8339 4.32523 14.6275 4.86245 15.3025 5.53968C15.9775 6.2169 16.5125 7.01412 16.9075 7.93134C17.3025 8.84856 17.5 9.8269 17.5 10.8663C17.5 11.7647 17.3556 12.6283 17.0667 13.4572C16.7778 14.2861 16.3783 14.9988 15.8683 15.5955C15.5439 15.9627 15.2117 16.2363 14.8717 16.4163C14.5322 16.5963 14.1722 16.6863 13.7917 16.6863C13.595 16.6863 13.4039 16.663 13.2183 16.6163C13.0322 16.5702 12.8461 16.5008 12.66 16.408L11.4933 15.8247C11.2628 15.7091 11.0192 15.6225 10.7625 15.5647C10.5053 15.5069 10.2458 15.478 9.98417 15.478C9.71194 15.478 9.45 15.5069 9.19833 15.5647C8.94667 15.6225 8.71056 15.7091 8.49 15.8247L7.34 16.408C7.14 16.5147 6.94639 16.5911 6.75917 16.6372C6.57139 16.6838 6.37222 16.7011 6.16167 16.6872ZM10 12.083C10.3517 12.083 10.6478 11.9625 10.8883 11.7213C11.1294 11.4808 11.25 11.1847 11.25 10.833C11.25 10.7108 11.2317 10.5916 11.195 10.4755C11.1578 10.3588 11.1078 10.2505 11.045 10.1505L12.5833 8.16134C12.8 8.3669 12.9864 8.58912 13.1425 8.82801C13.2986 9.0669 13.4167 9.32384 13.4967 9.59884C13.5344 9.70384 13.5906 9.79412 13.665 9.86968C13.74 9.94579 13.8297 9.98384 13.9342 9.98384C14.0842 9.98384 14.1961 9.92106 14.27 9.79551C14.3444 9.66995 14.3575 9.53079 14.3092 9.37801C13.9992 8.44523 13.4492 7.69079 12.6592 7.11468C11.8681 6.53801 10.9817 6.24968 10 6.24968C9.015 6.24968 8.12528 6.53801 7.33083 7.11468C6.53639 7.69079 5.98444 8.44523 5.675 9.37801C5.62667 9.53079 5.64222 9.66968 5.72167 9.79468C5.80111 9.91968 5.91056 9.98273 6.05 9.98384C6.15444 9.98384 6.24139 9.94579 6.31083 9.86968C6.38028 9.79356 6.43389 9.70329 6.47167 9.59884C6.71944 8.84162 7.16778 8.23301 7.81667 7.77301C8.46556 7.31301 9.19333 7.08301 10 7.08301C10.34 7.08301 10.6736 7.13301 11.0008 7.23301C11.3281 7.33301 11.6372 7.47329 11.9283 7.65384L10.385 9.65218C10.325 9.63051 10.2608 9.61356 10.1925 9.60134C10.1242 9.58912 10.06 9.58301 10 9.58301C9.64833 9.58301 9.35222 9.70356 9.11167 9.94468C8.87056 10.1852 8.75 10.4813 8.75 10.833C8.75 11.1847 8.87056 11.4808 9.11167 11.7213C9.35278 11.9619 9.64889 12.0825 10 12.083Z" fill="#EBA352"/>
</svg>
